<svg xmlns="http://www.w3.org/2000/svg" xmlns:xlink="http://www.w3.org/1999/xlink" viewBox="0 0 90.84 90.84"><defs><style>.cls-1{fill:url(#Gradiente_sem_nome_44);}.cls-2{fill:url(#Gradiente_sem_nome_65);}.cls-3{fill:url(#Gradiente_sem_nome_44-2);}.cls-4{fill:url(#Gradiente_sem_nome_32);}.cls-5{fill:url(#Gradiente_sem_nome_32-2);}</style><linearGradient id="Gradiente_sem_nome_44" x1="63.96" y1="18.49" x2="63.96" y2="74.05" gradientUnits="userSpaceOnUse"><stop offset="0.2" stop-color="#1a3a63"/><stop offset="0.9" stop-color="#0096c8"/></linearGradient><linearGradient id="Gradiente_sem_nome_65" y1="45.42" x2="90.84" y2="45.42" gradientUnits="userSpaceOnUse"><stop offset="0" stop-color="#1a3a63"/><stop offset="0.5" stop-color="#0094c6"/><stop offset="1" stop-color="#13416a"/></linearGradient><linearGradient id="Gradiente_sem_nome_44-2" x1="27.04" y1="18.42" x2="27.04" y2="74.14" xlink:href="#Gradiente_sem_nome_44"/><linearGradient id="Gradiente_sem_nome_32" x1="45.5" y1="34.99" x2="68.31" y2="34.99" gradientUnits="userSpaceOnUse"><stop offset="0" stop-color="#1a3a63"/><stop offset="0.19" stop-color="#13547f"/><stop offset="0.5" stop-color="#0978a7"/><stop offset="0.75" stop-color="#028ebf"/><stop offset="0.9" stop-color="#0096c8"/></linearGradient><linearGradient id="Gradiente_sem_nome_32-2" x1="45.5" y1="34.96" x2="22.7" y2="34.96" xlink:href="#Gradiente_sem_nome_32"/></defs><g id="Camada_2" data-name="Camada 2"><g id="Camada_1-2" data-name="Camada 1"><path class="cls-1" d="M62.62,18.49l-3,3.72V74.05a32.43,32.43,0,0,0,8.69-6.34V23.13A32.6,32.6,0,0,0,62.62,18.49Z"/><path class="cls-2" d="M45.42,6.72A38.7,38.7,0,1,1,6.73,45.42,38.7,38.7,0,0,1,45.42,6.72m0-6.72A45.42,45.42,0,1,0,90.84,45.42,45.46,45.46,0,0,0,45.42,0Z"/><path class="cls-3" d="M28.33,18.42A31.64,31.64,0,0,0,22.7,23V67.88a32.15,32.15,0,0,0,8.69,6.26V22.21Z"/><path class="cls-4" d="M68.31,23.13a32.6,32.6,0,0,0-5.69-4.64L45.5,39.65V51.49h1.12l21.69-27Z"/><path class="cls-5" d="M22.7,23v1.57l21.69,27H45.5V39.65L28.33,18.42A31.64,31.64,0,0,0,22.7,23Z"/></g></g></svg>